<mxfile host="app.diagrams.net" modified="2022-08-25T16:17:30.663Z" agent="5.0 (Macintosh; Intel Mac OS X 10_15_7) AppleWebKit/537.36 (KHTML, like Gecko) Chrome/104.0.0.0 Safari/537.36" etag="FMgG1wE-E5T34i-Mr9su" version="20.2.7" type="github">
  <diagram id="ZsOJbICiuRhJdJcfstIH" name="Page-1">
    <mxGraphModel dx="1106" dy="698" grid="1" gridSize="10" guides="1" tooltips="1" connect="1" arrows="1" fold="1" page="1" pageScale="1" pageWidth="1600" pageHeight="1200" math="0" shadow="0">
      <root>
        <mxCell id="0" />
        <mxCell id="1" parent="0" />
        <mxCell id="O88-N_snsLyPXLneHYWy-7" value="" style="swimlane;startSize=0;" parent="1" vertex="1">
          <mxGeometry x="330" y="10" width="600" height="610" as="geometry" />
        </mxCell>
        <mxCell id="O88-N_snsLyPXLneHYWy-13" value="SAP BTP" style="text;html=1;strokeColor=none;fillColor=none;align=center;verticalAlign=middle;whiteSpace=wrap;rounded=0;fontStyle=1" parent="O88-N_snsLyPXLneHYWy-7" vertex="1">
          <mxGeometry x="30" width="60" height="30" as="geometry" />
        </mxCell>
        <mxCell id="O88-N_snsLyPXLneHYWy-23" value="" style="group" parent="O88-N_snsLyPXLneHYWy-7" vertex="1" connectable="0">
          <mxGeometry x="330" y="440" width="170" height="74" as="geometry" />
        </mxCell>
        <mxCell id="O88-N_snsLyPXLneHYWy-21" value="" style="shape=image;verticalLabelPosition=bottom;verticalAlign=top;imageAspect=0;aspect=fixed;image=data:image/svg+xml,PHN2ZyB4bWxucz0iaHR0cDovL3d3dy53My5vcmcvMjAwMC9zdmciIGlkPSJpZGVudGl0eV9wcm92aXNpb25pbmciIHZpZXdCb3g9IjQuMDAwMDAxOTA3MzQ4NjMzIDQuMDE3OTk5NjQ5MDQ3ODUyIDQ4IDQ4IiB3aWR0aD0iNDgiIGhlaWdodD0iNDgiPjxkZWZzPjxzdHlsZT4uY2xzLTF7ZmlsbDojMDc0ZDkyO30uY2xzLTJ7ZmlsbDojMDUzYjcwO30uY2xzLTN7ZmlsbDojMGE2ZWQxO308L3N0eWxlPjwvZGVmcz48dGl0bGU+aWRlbnRpdHlfcHJvdmlzaW9uaW5nX2NpcmNsZTwvdGl0bGU+PHBhdGggY2xhc3M9ImNscy0xIiBkPSJNMjgsNi4wMThhMjIsMjIsMCwxLDEtMjIsMjIsMjIuMDI1LDIyLjAyNSwwLDAsMSwyMi0yMm0wLTJhMjQsMjQsMCwxLDAsMjQsMjQsMjQsMjQsMCwwLDAtMjQtMjRaIi8+PHBhdGggY2xhc3M9ImNscy0yIiBkPSJNMzguNDA3LDI0LjIwNWE0Ljk1MSw0Ljk1MSwwLDAsMC03LjQ1Ny0zLjMzMyw2Ljc0Myw2Ljc0MywwLDAsMC02LjIxMS00LjIyOWMtNy40NDksMC02LjYsNy41NzctNi42LDcuNTc3QTUuOTc5LDUuOTc5LDAsMCwwLDE0LDI5Ljg5NGMwLDMuMzEzLDIuMSw2LDUuNDE2LDZoLjQxN3YtMS43NWgtLjQxN2MtMi4zNDMsMC0zLjY2Ni0xLjkwNi0zLjY2Ni00LjI0OWE0LjIyOSw0LjIyOSwwLDAsMSwyLjkzMi00LjAxMmwxLjMzLS40NDgtLjEzNS0xLjM5NGE2LjEyNiw2LjEyNiwwLDAsMSwxLjE3Mi00LjA5LDUuMSw1LjEsMCwwLDEsMy43MjItMS41NTYsNS4zNzIsNS4zNzIsMCwwLDEsNC42NjMsMy4xMTVsLjY4NywxLjY3NSwxLjQxMy0uNzY5YTQuNDMyLDQuNDMyLDAsMCwxLDEuOTc4LS41MjIsMy4yMzUsMy4yMzUsMCwwLDEsMy4xNzUsMi42MzZsLjE2OC44OTEuODI1LjM3N2E0LjM4NCw0LjM4NCwwLDAsMSwyLjU3LDMuOTcxYzAsMi40MTMtMS4zNzksNC4zNzUtMy43OTIsNC4zNzVoLS4yOTF2MS43NWguMjkxYzMuMzgzLDAsNS41NDItMi43NDIsNS41NDItNi4xMjVBNi4xMTUsNi4xMTUsMCwwLDAsMzguNDA3LDI0LjIwNVoiLz48cGF0aCBjbGFzcz0iY2xzLTMiIGQ9Ik0yNi45MjIsMzUuNjU5YTIuMjA5LDIuMjA5LDAsMCwwLS43LS40NywyLjE1NywyLjE1NywwLDAsMC0uODQ2LS4xNzFIMjMuMTg4YTIuMTM3LDIuMTM3LDAsMCwwLS44NTUuMTcxLDIuMjI2LDIuMjI2LDAsMCwwLS42OTIuNDcsMi4xOTMsMi4xOTMsMCwwLDAtLjQ3LjcsMi4xMzksMi4xMzksMCwwLDAtLjE3MS44NDZ2Mi4xODdoNi41NjJWMzcuMjA2YTIuMTU2LDIuMTU2LDAsMCwwLS4xNy0uODQ2QTIuMjA5LDIuMjA5LDAsMCwwLDI2LjkyMiwzNS42NTlaIi8+PHBhdGggY2xhc3M9ImNscy0zIiBkPSJNMjUuODI4LDM0LjM3OGEyLjIzMSwyLjIzMSwwLDAsMCwuNDctLjY5MywyLjExNSwyLjExNSwwLDAsMCwuMTcxLS44NTQsMi4xMzksMi4xMzksMCwwLDAtLjE3MS0uODQ2LDIuMTgsMi4xOCwwLDAsMC0xLjE3MS0xLjE3MSwyLjE1NywyLjE1NywwLDAsMC0uODQ2LS4xNzEsMi4xMzUsMi4xMzUsMCwwLDAtLjg1NC4xNzEsMi4yMjYsMi4yMjYsMCwwLDAtLjY5Mi40NywyLjE3NiwyLjE3NiwwLDAsMC0uNDcuNywyLjEzOSwyLjEzOSwwLDAsMC0uMTcxLjg0NiwyLjExNSwyLjExNSwwLDAsMCwuMTcxLjg1NCwyLjIsMi4yLDAsMCwwLC40Ny42OTMsMi4yMjYsMi4yMjYsMCwwLDAsLjY5Mi40NywyLjIxLDIuMjEsMCwwLDAsMS43LDBBMi4yMDksMi4yMDksMCwwLDAsMjUuODI4LDM0LjM3OFoiLz48cGF0aCBjbGFzcz0iY2xzLTMiIGQ9Ik0zNC44MjksMzYuMzZhMi4xOCwyLjE4LDAsMCwwLTEuMTcxLTEuMTcxLDIuMTUsMi4xNSwwLDAsMC0uODQ2LS4xNzFIMzAuNjI1YTIuMTMyLDIuMTMyLDAsMCwwLS44NTQuMTcxLDIuMiwyLjIsMCwwLDAtMS4xNjMsMS4xNzEsMi4xMzgsMi4xMzgsMCwwLDAtLjE3Ljg0NnYyLjE4N0gzNVYzNy4yMDZBMi4xMzksMi4xMzksMCwwLDAsMzQuODI5LDM2LjM2WiIvPjxwYXRoIGNsYXNzPSJjbHMtMyIgZD0iTTMzLjI2NSwzNC4zNzhhMi4yMTQsMi4yMTQsMCwwLDAsLjQ3LS42OTMsMi4xMTUsMi4xMTUsMCwwLDAsLjE3MS0uODU0LDIuMTM5LDIuMTM5LDAsMCwwLS4xNzEtLjg0NiwyLjE4MywyLjE4MywwLDAsMC0xLjE3LTEuMTcxLDIuMiwyLjIsMCwwLDAtMS43LDBBMi4yLDIuMiwwLDAsMCwyOS43LDMxLjk4NWEyLjEzOSwyLjEzOSwwLDAsMC0uMTcxLjg0NiwyLjExNSwyLjExNSwwLDAsMCwuMTcxLjg1NCwyLjIyNiwyLjIyNiwwLDAsMCwxLjE2MiwxLjE2MywyLjIxMiwyLjIxMiwwLDAsMCwxLjcsMEEyLjIsMi4yLDAsMCwwLDMzLjI2NSwzNC4zNzhaIi8+PHBhdGggY2xhc3M9ImNscy0zIiBkPSJNMjIuMjk0LDI1LjA0M2EuNTE4LjUxOCwwLDAsMCwuMzc3LS4xNjRsMS4xODEtMS40MTF2NS40MjVIMjQuOVYyMy40NjhsMS4xNjYsMS4zOTVhLjQ4My40ODMsMCwwLDAsLjc1NCwwLC40NTIuNDUyLDAsMCwwLDAtLjcyMmwtMS42OS0xLjk1MmExLjExLDEuMTEsMCwwLDAtMS41MDksMGwtMS43MDcsMS45NjhhLjUuNSwwLDAsMC0uMTY0LjM2MS41LjUsMCwwLDAsLjE2NC4zNjFBLjUxNi41MTYsMCwwLDAsMjIuMjk0LDI1LjA0M1oiLz48L3N2Zz4=" parent="O88-N_snsLyPXLneHYWy-23" vertex="1">
          <mxGeometry x="61" width="48" height="48" as="geometry" />
        </mxCell>
        <mxCell id="O88-N_snsLyPXLneHYWy-22" value="SAP Identity Authentication" style="text;html=1;strokeColor=none;fillColor=none;align=center;verticalAlign=middle;whiteSpace=wrap;rounded=0;" parent="O88-N_snsLyPXLneHYWy-23" vertex="1">
          <mxGeometry y="44" width="170" height="30" as="geometry" />
        </mxCell>
        <mxCell id="O88-N_snsLyPXLneHYWy-20" value="" style="group" parent="O88-N_snsLyPXLneHYWy-7" vertex="1" connectable="0">
          <mxGeometry x="50" y="60" width="86" height="78" as="geometry" />
        </mxCell>
        <mxCell id="O88-N_snsLyPXLneHYWy-16" value="" style="shape=image;verticalLabelPosition=bottom;verticalAlign=top;imageAspect=0;aspect=fixed;image=data:image/svg+xml,PHN2ZyB4bWxucz0iaHR0cDovL3d3dy53My5vcmcvMjAwMC9zdmciIGlkPSJtb2JpbGVzZXJ2aWNlcyIgdmlld0JveD0iNC4wMDAwMDE5MDczNDg2MzMgNC4wMTc5OTk2NDkwNDc4NTIgNDggNDgiIHdpZHRoPSI0OCIgaGVpZ2h0PSI0OCI+PGRlZnM+PHN0eWxlPi5jbHMtMXtmaWxsOiMwNTNiNzA7fS5jbHMtMntmaWxsOiMwYTZlZDE7fS5jbHMtM3tmaWxsOiMwNzRkOTI7fTwvc3R5bGU+PC9kZWZzPjx0aXRsZT5tb2JpbGVzZXJ2aWNlczwvdGl0bGU+PHBhdGggY2xhc3M9ImNscy0xIiBkPSJNMzIuODc1LDE1YTMuMywzLjMsMCwwLDEsMy4yNSwzLjI1djE5LjVhMy4xLDMuMSwwLDAsMS0uOTY1LDIuMzExQTMuMTczLDMuMTczLDAsMCwxLDMyLjg3NSw0MWgtOS43NWEzLjE2OCwzLjE2OCwwLDAsMS0yLjI4NS0uOTM5LDMuMSwzLjEsMCwwLDEtLjk2NS0yLjMxMVYxOC4yNUEzLjMsMy4zLDAsMCwxLDIzLjEyNSwxNVpNMzQuNSwxOC4yNWgtMTNWMzYuMTI1aDEzWk0yOCwzOS4zNzVhMS4yMiwxLjIyLDAsMCwwLC44NjMtLjMzLDEuMTUzLDEuMTUzLDAsMCwwLC4zNTYtLjg4OSwxLjIxOSwxLjIxOSwwLDEsMC0yLjQzOCwwLDEuMTQ5LDEuMTQ5LDAsMCwwLC4zNTYuODg5QTEuMjE0LDEuMjE0LDAsMCwwLDI4LDM5LjM3NVoiLz48cmVjdCBjbGFzcz0iY2xzLTIiIHg9IjIzLjkzOCIgeT0iMjQuMjQyIiB3aWR0aD0iMS42MjUiIGhlaWdodD0iMy43NTgiLz48cmVjdCBjbGFzcz0iY2xzLTIiIHg9IjIzLjEyNSIgeT0iMjkuNjI1IiB3aWR0aD0iOS43NSIgaGVpZ2h0PSIwLjgxMyIvPjxyZWN0IGNsYXNzPSJjbHMtMiIgeD0iMjMuMTI1IiB5PSIzMy42ODgiIHdpZHRoPSI5Ljc1IiBoZWlnaHQ9IjAuODEzIi8+PHJlY3QgY2xhc3M9ImNscy0yIiB4PSIyMy4xMjUiIHk9IjMxLjY1NiIgd2lkdGg9IjkuNzUiIGhlaWdodD0iMC44MTMiLz48cmVjdCBjbGFzcz0iY2xzLTIiIHg9IjMwLjQzOCIgeT0iMjAuMzgzIiB3aWR0aD0iMS42MjUiIGhlaWdodD0iNy42MTciLz48cmVjdCBjbGFzcz0iY2xzLTIiIHg9IjI3LjE4OCIgeT0iMjIuMjYyIiB3aWR0aD0iMS42MjUiIGhlaWdodD0iNS43MzgiLz48cGF0aCBjbGFzcz0iY2xzLTMiIGQ9Ik0yOCw2LjAxOGEyMiwyMiwwLDEsMS0yMiwyMiwyMi4wMjUsMjIuMDI1LDAsMCwxLDIyLTIybTAtMmEyNCwyNCwwLDEsMCwyNCwyNCwyNCwyNCwwLDAsMC0yNC0yNFoiLz48L3N2Zz4=" parent="O88-N_snsLyPXLneHYWy-20" vertex="1">
          <mxGeometry x="19" width="48" height="48" as="geometry" />
        </mxCell>
        <mxCell id="O88-N_snsLyPXLneHYWy-17" value="SAP Appgyver Native app" style="text;html=1;strokeColor=none;fillColor=none;align=center;verticalAlign=middle;whiteSpace=wrap;rounded=0;" parent="O88-N_snsLyPXLneHYWy-20" vertex="1">
          <mxGeometry y="48" width="86" height="30" as="geometry" />
        </mxCell>
        <mxCell id="GcOrCZ338c-xVzX61Gsm-5" value="" style="group" vertex="1" connectable="0" parent="O88-N_snsLyPXLneHYWy-7">
          <mxGeometry x="247.5" y="520" width="60" height="78" as="geometry" />
        </mxCell>
        <mxCell id="GcOrCZ338c-xVzX61Gsm-3" value="" style="shape=image;verticalLabelPosition=bottom;verticalAlign=top;imageAspect=0;aspect=fixed;image=data:image/svg+xml,PHN2ZyB4bWxucz0iaHR0cDovL3d3dy53My5vcmcvMjAwMC9zdmciIGlkPSJzYXAtaGFuYS1jbG91ZC1jb25uZWN0b3IiIHZpZXdCb3g9IjMuOTk5Mjg0NTA1ODQ0MTE2IDMuOTk5OTk5NTIzMTYyODQyIDQ4LjAwMDcxNzE2MzA4NTk0IDQ4IiB3aWR0aD0iNDguMDAwNzE3MTYzMDg1OTQiIGhlaWdodD0iNDgiPjxkZWZzPjxzdHlsZT4uY2xzLTF7ZmlsbDojMGE2ZWQxO30uY2xzLTJ7ZmlsbDojMDUzYjcwO308L3N0eWxlPjwvZGVmcz48dGl0bGU+c2FwLWhhbmEtY2xvdWQtY29ubmVjdG9yPC90aXRsZT48cGF0aCBjbGFzcz0iY2xzLTEiIGQ9Ik00MS41LDQ5aC05YTEuNSwxLjUsMCwwLDAsMCwzaDlhMS41LDEuNSwwLDAsMCwwLTNaIi8+PHBhdGggY2xhc3M9ImNscy0xIiBkPSJNNDguOTkxLDI1SDI1LjAwOUEzLjAwOSwzLjAwOSwwLDAsMCwyMiwyOC4wMDlWNDIuOTkxQTMuMDA5LDMuMDA5LDAsMCwwLDI1LjAwOSw0Nkg0OC45OTFBMy4wMDksMy4wMDksMCwwLDAsNTIsNDIuOTkxVjI4LjAwOUEzLjAwOSwzLjAwOSwwLDAsMCw0OC45OTEsMjVabTAsMThMMjUsNDIuOTkxLDI1LjAwOSwyOEg0OC45OTFsLjAwOS4wMDlaIi8+PHBhdGggY2xhc3M9ImNscy0yIiBkPSJNMTkuMTA5LDdhNi40NTUsNi40NTUsMCwwLDEsNS44NjQsNC4wMzNsMS4zMDcsMy4yOUwyOS4zMSwxMi41YTMuOTIyLDMuOTIyLDAsMCwxLDIuMDQzLS41OTEsMy45ODgsMy45ODgsMCwwLDEsMy45MTQsMy4yNDlsLjI4OCwxLjUyOSwxLjQxNS42NDZhNS4zNTEsNS4zNTEsMCwwLDEsMyw0LjY3SDQzYTguMzU1LDguMzU1LDAsMCwwLTQuNzg1LTcuNEE2Ljk0MSw2Ljk0MSwwLDAsMCwyNy43NjIsOS45MjgsOS40NTIsOS40NTIsMCwwLDAsMTkuMDU1LDRDOC42NSw0LDkuOCwxNC42MjEsOS44LDE0LjYyMUE4LjM4Nyw4LjM4NywwLDAsMCwxMi40MSwzMC45ODZIMTl2LTNIMTIuNDFhNS4zODcsNS4zODcsMCwwLDEtMS42NzUtMTAuNTE1bDIuMzA4LS43NTlMMTIuNzgxLDE0LjNhOC4xLDguMSwwLDAsMSwxLjUtNS4yODRBNi41LDYuNSwwLDAsMSwxOS4xMDksN1oiLz48L3N2Zz4=" vertex="1" parent="GcOrCZ338c-xVzX61Gsm-5">
          <mxGeometry width="48" height="48" as="geometry" />
        </mxCell>
        <mxCell id="GcOrCZ338c-xVzX61Gsm-4" value="Connectivity" style="text;html=1;strokeColor=none;fillColor=none;align=center;verticalAlign=middle;whiteSpace=wrap;rounded=0;" vertex="1" parent="GcOrCZ338c-xVzX61Gsm-5">
          <mxGeometry y="48" width="60" height="30" as="geometry" />
        </mxCell>
        <mxCell id="GcOrCZ338c-xVzX61Gsm-19" value="" style="group" vertex="1" connectable="0" parent="O88-N_snsLyPXLneHYWy-7">
          <mxGeometry x="45" y="230" width="465" height="170" as="geometry" />
        </mxCell>
        <mxCell id="GcOrCZ338c-xVzX61Gsm-13" value="" style="whiteSpace=wrap;html=1;" vertex="1" parent="GcOrCZ338c-xVzX61Gsm-19">
          <mxGeometry x="15" width="450" height="170" as="geometry" />
        </mxCell>
        <mxCell id="GcOrCZ338c-xVzX61Gsm-14" value="Cloud Foundry" style="text;html=1;strokeColor=none;fillColor=none;align=center;verticalAlign=middle;whiteSpace=wrap;rounded=0;fontStyle=1" vertex="1" parent="GcOrCZ338c-xVzX61Gsm-19">
          <mxGeometry width="140" height="30" as="geometry" />
        </mxCell>
        <mxCell id="GcOrCZ338c-xVzX61Gsm-16" value="" style="whiteSpace=wrap;html=1;" vertex="1" parent="GcOrCZ338c-xVzX61Gsm-19">
          <mxGeometry x="42.5" y="30.5" width="397.5" height="119.5" as="geometry" />
        </mxCell>
        <mxCell id="GcOrCZ338c-xVzX61Gsm-17" value="CAP Service" style="text;html=1;strokeColor=none;fillColor=none;align=center;verticalAlign=middle;whiteSpace=wrap;rounded=0;fontStyle=1" vertex="1" parent="GcOrCZ338c-xVzX61Gsm-19">
          <mxGeometry x="42.5" y="30.5" width="120" height="19" as="geometry" />
        </mxCell>
        <mxCell id="GcOrCZ338c-xVzX61Gsm-27" value="" style="whiteSpace=wrap;html=1;" vertex="1" parent="GcOrCZ338c-xVzX61Gsm-19">
          <mxGeometry x="60" y="60" width="360" height="80" as="geometry" />
        </mxCell>
        <mxCell id="GcOrCZ338c-xVzX61Gsm-32" value="" style="group" vertex="1" connectable="0" parent="GcOrCZ338c-xVzX61Gsm-19">
          <mxGeometry x="225" y="75" width="195" height="50" as="geometry" />
        </mxCell>
        <mxCell id="GcOrCZ338c-xVzX61Gsm-26" value="Holds Image" style="text;html=1;strokeColor=none;fillColor=none;align=center;verticalAlign=middle;whiteSpace=wrap;rounded=0;" vertex="1" parent="GcOrCZ338c-xVzX61Gsm-32">
          <mxGeometry width="97.5" height="30" as="geometry" />
        </mxCell>
        <mxCell id="GcOrCZ338c-xVzX61Gsm-30" value="Flight Entity" style="text;html=1;strokeColor=none;fillColor=none;align=center;verticalAlign=middle;whiteSpace=wrap;rounded=0;" vertex="1" parent="GcOrCZ338c-xVzX61Gsm-32">
          <mxGeometry x="97.5" width="97.5" height="30" as="geometry" />
        </mxCell>
        <mxCell id="GcOrCZ338c-xVzX61Gsm-31" value="Remote Service" style="text;html=1;strokeColor=none;fillColor=none;align=center;verticalAlign=middle;whiteSpace=wrap;rounded=0;" vertex="1" parent="GcOrCZ338c-xVzX61Gsm-32">
          <mxGeometry y="20" width="170" height="30" as="geometry" />
        </mxCell>
        <mxCell id="GcOrCZ338c-xVzX61Gsm-24" value="" style="group" vertex="1" connectable="0" parent="O88-N_snsLyPXLneHYWy-7">
          <mxGeometry x="170" y="50" width="230" height="100" as="geometry" />
        </mxCell>
        <mxCell id="GcOrCZ338c-xVzX61Gsm-23" value="" style="whiteSpace=wrap;html=1;" vertex="1" parent="GcOrCZ338c-xVzX61Gsm-24">
          <mxGeometry width="230" height="100" as="geometry" />
        </mxCell>
        <mxCell id="O88-N_snsLyPXLneHYWy-19" value="" style="group" parent="GcOrCZ338c-xVzX61Gsm-24" vertex="1" connectable="0">
          <mxGeometry x="14" y="16" width="96" height="72" as="geometry" />
        </mxCell>
        <mxCell id="O88-N_snsLyPXLneHYWy-14" value="" style="shape=image;verticalLabelPosition=bottom;verticalAlign=top;imageAspect=0;aspect=fixed;image=data:image/svg+xml,PHN2ZyB4bWxucz0iaHR0cDovL3d3dy53My5vcmcvMjAwMC9zdmciIGlkPSJoYW5hIiB2aWV3Qm94PSI0LjAwMDAwMTkwNzM0ODYzMyAzLjk5OTk5OTA0NjMyNTY4MzYgNDggNDcuOTk5OTk2MTg1MzAyNzM0IiB3aWR0aD0iNDgiIGhlaWdodD0iNDcuOTk5OTk2MTg1MzAyNzM0Ij48ZGVmcz48c3R5bGU+LmNscy0xe2ZpbGw6IzBhNmVkMTt9LmNscy0ye2ZpbGw6IzA1M2I3MDt9LmNscy0ze2ZpbGw6IzA3NGQ5Mjt9PC9zdHlsZT48L2RlZnM+PHRpdGxlPmhhbmFfY2lyY2xlPC90aXRsZT48cGF0aCBjbGFzcz0iY2xzLTEiIGQ9Ik00MC40MTcsMjQuNjk0YTQuMjI2LDQuMjI2LDAsMCwwLTEuNTI0LTEuMDYyLDEzLjA3NCwxMy4wNzQsMCwwLDAtNS4xNDQtLjg4MiwxMy4wNywxMy4wNywwLDAsMC01LjE0NC44ODIsNC4yMDksNC4yMDksMCwwLDAtMS41MjQsMS4wNjIsMi4yLDIuMiwwLDAsMC0uNTgzLDEuNDdWMzguNTQ3YTIuMTIzLDIuMTIzLDAsMCwwLC41ODMsMS40NjdBNC4xMzgsNC4xMzgsMCwwLDAsMjguNiw0MS4wNzYsMTIuMzQ1LDEyLjM0NSwwLDAsMCwzMy43NDksNDJhMTMuMDc0LDEzLjA3NCwwLDAsMCw1LjE0NC0uODgyLDQuMjI2LDQuMjI2LDAsMCwwLDEuNTI0LTEuMDYyQTIuMjg5LDIuMjg5LDAsMCwwLDQxLDM4LjU4NlYyNi4xNjRBMi4yLDIuMiwwLDAsMCw0MC40MTcsMjQuNjk0Wk0zNS4zOCw0MC4zNTJjLS41MjIuMDQ5LTEuMDYxLjA4My0xLjYzMS4wODNhMTYuNzg3LDE2Ljc4NywwLDAsMS0xLjk4Ny0uMTIyVjI5LjVhMTkuMjI4LDE5LjIyOCwwLDAsMCwxLjk4Ny4xYy41NzEsMCwxLjExMS0uMDMsMS42MzEtLjA3NFptNC4xOC0xLjc2NmMwLC40MDgtLjUzNC44NTEtMS40MzEsMS4xODdhOC40NDIsOC40NDIsMCwwLDEtMS4zLjM2M1YyOS4zMjNhNy45NDcsNy45NDcsMCwwLDAsMi43MzEtLjk1OVpNMzguMTI5LDI3LjQwOGExMi41ODMsMTIuNTgzLDAsMCwxLTQuMzguNjYzLDEyLjU0OCwxMi41NDgsMCwwLDEtNC4zNzctLjY2M2MtLjg4OC0uMzc5LTEuNC0uODI2LTEuNC0xLjIyNnYtLjAxOGMwLS43NTUsMi4wNTYtMS44NSw1Ljc3NC0xLjg1LDMuNzQzLDAsNS44MTEsMS4wOTUsNS44MTEsMS44N0MzOS41NiwyNi41ODcsMzkuMDM4LDI3LjAzNCwzOC4xMjksMjcuNDA4WiIvPjxwYXRoIGNsYXNzPSJjbHMtMiIgZD0iTTI0Ljg0LDI3Ljk5MkgxNy45MDZhMy4xNDMsMy4xNDMsMCwwLDEtLjk3Ny02LjEzNGwxLjM0Ni0uNDQzLS4xNTMtMS40MDhBNC43MzMsNC43MzMsMCwwLDEsMTksMTYuOTI0YTMuOCwzLjgsMCwwLDEsMi44MTktMS4xNzNBMy41MzQsMy41MzQsMCwwLDEsMjUuMjM1LDE4LjFMMjYsMjAuMDIzbDEuNzY3LTEuMDY2YTIuMjg3LDIuMjg3LDAsMCwxLDEuMTkyLS4zNDUsMi4zMjYsMi4zMjYsMCwwLDEsMi4yODMsMS45bC4wOTMuNDkzaDEuNzQ5Yy0uMDI3LS4yNTYtLjA2My0uNTI4LS4xMjItLjgxN2E0LjA0OSw0LjA0OSwwLDAsMC02LjEtMi43MjVBNS41MTQsNS41MTQsMCwwLDAsMjEuNzgyLDE0Yy01Ljk0NS4xNDEtNS40LDYuMi01LjQsNi4yYTQuODkzLDQuODkzLDAsMCwwLDEuNTI0LDkuNTQ3SDI0Ljg0WiIvPjxwYXRoIGNsYXNzPSJjbHMtMyIgZD0iTTI4LDZBMjIsMjIsMCwxLDEsNiwyOCwyMi4wMjUsMjIuMDI1LDAsMCwxLDI4LDZtMC0yQTI0LDI0LDAsMSwwLDUyLDI4LDI0LDI0LDAsMCwwLDI4LDRaIi8+PC9zdmc+" parent="O88-N_snsLyPXLneHYWy-19" vertex="1">
          <mxGeometry x="22" width="48" height="48" as="geometry" />
        </mxCell>
        <mxCell id="O88-N_snsLyPXLneHYWy-18" value="SAP Hana Cloud" style="text;html=1;strokeColor=none;fillColor=none;align=center;verticalAlign=middle;whiteSpace=wrap;rounded=0;" parent="O88-N_snsLyPXLneHYWy-19" vertex="1">
          <mxGeometry y="42" width="96" height="30" as="geometry" />
        </mxCell>
        <mxCell id="GcOrCZ338c-xVzX61Gsm-22" value="" style="group" vertex="1" connectable="0" parent="GcOrCZ338c-xVzX61Gsm-24">
          <mxGeometry x="160" y="12" width="60" height="76" as="geometry" />
        </mxCell>
        <mxCell id="GcOrCZ338c-xVzX61Gsm-20" value="" style="shape=image;verticalLabelPosition=bottom;verticalAlign=top;imageAspect=0;aspect=fixed;image=data:image/svg+xml,PHN2ZyB4bWxucz0iaHR0cDovL3d3dy53My5vcmcvMjAwMC9zdmciIGlkPSJkb2N1bWVudC1zZXJ2aWNlIiB2aWV3Qm94PSIzLjk5OTQ5NTAyOTQ0OTQ2MyA4IDQ4LjAwMTAxMDg5NDc3NTM5IDM5LjAwMDUwMzU0MDAzOTA2IiB3aWR0aD0iNDguMDAxMDEwODk0Nzc1MzkiIGhlaWdodD0iMzkuMDAwNTAzNTQwMDM5MDYiPjxkZWZzPjxzdHlsZT4uY2xzLTF7ZmlsbDojMGE2ZWQxO30uY2xzLTJ7ZmlsbDojMDUzYjcwO30uY2xzLTN7ZmlsbDojMDA5MmQxO308L3N0eWxlPjwvZGVmcz48dGl0bGU+ZG9jdW1lbnQtc2VydmljZTwvdGl0bGU+PHBhdGggY2xhc3M9ImNscy0xIiBkPSJNNDksMjBoLS4yTDQzLDhIMTNMNy4yLDIwSDdhMi45NDYsMi45NDYsMCwwLDAtMywzVjQ0YTIuOTQ2LDIuOTQ2LDAsMCwwLDMsM0g0OWEyLjk0NiwyLjk0NiwwLDAsMCwzLTNWMjNBMi45NDYsMi45NDYsMCwwLDAsNDksMjBabS0zLjItLjFIMTAuMWw0LjYtOS42SDQxLjNNNyw0NFYyM0g0OVY0NFoiLz48cG9seWdvbiBjbGFzcz0iY2xzLTIiIHBvaW50cz0iMzQgMzggMjIgMzggMjIgMzYuNSAxOSAzNi41IDE5IDM4IDE5IDQxIDM3IDQxIDM3IDM4IDM3IDM2LjUgMzQgMzYuNSAzNCAzOCIvPjxsaW5lIGNsYXNzPSJjbHMtMyIgeDE9IjQxLjMiIHkxPSIxMC4zIiB4Mj0iNDUuOCIgeTI9IjE5LjkiLz48cmVjdCBjbGFzcz0iY2xzLTIiIHg9IjE0LjEiIHk9IjE2LjEiIHdpZHRoPSIyNy44IiBoZWlnaHQ9IjEuNSIvPjxyZWN0IGNsYXNzPSJjbHMtMiIgeD0iMTYiIHk9IjEyLjQiIHdpZHRoPSIyNCIgaGVpZ2h0PSIxLjUiLz48L3N2Zz4=" vertex="1" parent="GcOrCZ338c-xVzX61Gsm-22">
          <mxGeometry x="6" width="48" height="39" as="geometry" />
        </mxCell>
        <mxCell id="GcOrCZ338c-xVzX61Gsm-21" value="Document Management Service" style="text;html=1;strokeColor=none;fillColor=none;align=center;verticalAlign=middle;whiteSpace=wrap;rounded=0;" vertex="1" parent="GcOrCZ338c-xVzX61Gsm-22">
          <mxGeometry y="46" width="60" height="30" as="geometry" />
        </mxCell>
        <mxCell id="GcOrCZ338c-xVzX61Gsm-29" value="" style="group" vertex="1" connectable="0" parent="O88-N_snsLyPXLneHYWy-7">
          <mxGeometry x="120" y="306" width="117" height="50" as="geometry" />
        </mxCell>
        <mxCell id="GcOrCZ338c-xVzX61Gsm-25" value="Employee Entity" style="text;html=1;strokeColor=none;fillColor=none;align=center;verticalAlign=middle;whiteSpace=wrap;rounded=0;" vertex="1" parent="GcOrCZ338c-xVzX61Gsm-29">
          <mxGeometry x="9.75" width="97.5" height="30" as="geometry" />
        </mxCell>
        <mxCell id="GcOrCZ338c-xVzX61Gsm-28" value="Employee Service" style="text;html=1;strokeColor=none;fillColor=none;align=center;verticalAlign=middle;whiteSpace=wrap;rounded=0;" vertex="1" parent="GcOrCZ338c-xVzX61Gsm-29">
          <mxGeometry y="20" width="117" height="30" as="geometry" />
        </mxCell>
        <mxCell id="GcOrCZ338c-xVzX61Gsm-36" value="" style="group" vertex="1" connectable="0" parent="O88-N_snsLyPXLneHYWy-7">
          <mxGeometry x="100" y="448" width="120" height="78" as="geometry" />
        </mxCell>
        <mxCell id="GcOrCZ338c-xVzX61Gsm-33" value="" style="shape=image;verticalLabelPosition=bottom;verticalAlign=top;imageAspect=0;aspect=fixed;image=data:image/svg+xml,PHN2ZyB4bWxucz0iaHR0cDovL3d3dy53My5vcmcvMjAwMC9zdmciIGlkPSJzYXAtYXBwbGljYXRpb24tc3R1ZGlvX2Zvcm1lcl9XZWJfSURFXyIgZGF0YS1uYW1lPSJzYXAtYXBwbGljYXRpb24tc3R1ZGlvIChmb3JtZXIgV2ViIElERSkiIHZpZXdCb3g9IjQuODE5MDAwMjQ0MTQwNjI1IDQgNDYuMzYxOTk5NTExNzE4NzUgNDgiIHdpZHRoPSI0Ni4zNjE5OTk1MTE3MTg3NSIgaGVpZ2h0PSI0OCI+PGRlZnM+PHN0eWxlPi5jbHMtMXtmaWxsOiMwNTNiNzA7fS5jbHMtMntmaWxsOiMwYTZlZDE7fTwvc3R5bGU+PC9kZWZzPjx0aXRsZT5zYXAtYXBwbGljYXRpb24tc3R1ZGlvPC90aXRsZT48cG9seWdvbiBjbGFzcz0iY2xzLTEiIHBvaW50cz0iMzAuMzA1IDIyLjExNCAyOC42MTggMjEuMDQzIDI2Ljk0MiAxOS45OCAyNi40NjQgMTkuNjc3IDI1LjkwMiAxOS4zMjUgMjUuMzE2IDE5LjYzNSA1LjgwNiAyOS45NjQgNS4yNTEgMzAuMjU5IDUuMTk3IDMwLjg4MyA0Ljk5NSAzMy4yNDcgNC44MTkgMzUuMzI0IDYuNjY2IDM0LjM2NCAyOC41MzQgMjMuMDMyIDMwLjMwNSAyMi4xMTQiLz48cG9seWdvbiBjbGFzcz0iY2xzLTEiIHBvaW50cz0iNy4yNTkgMjYuODI3IDIyLjE3OSAxOC45ODkgMjMuOTQzIDE4LjA2MyAyMi4yNiAxNi45OTkgMjAuMTYzIDE1LjY3NiAxOS42MDkgMTUuMzI0IDE5LjAyMyAxNS42MyA2LjQyMiAyMi4xNiA1Ljg2MyAyMi40NTEgNS44MSAyMy4wODIgNS41OCAyNS43MTQgNS4zOTYgMjcuODAzIDUuNCAyNy44MDMgNy4yNTkgMjYuODI3Ii8+PHBvbHlnb24gY2xhc3M9ImNscy0xIiBwb2ludHM9IjQ5LjQxNCAyMi4yMjkgMjcuNjQ2IDMzLjc0IDI1LjgwNiAzNC43MTQgMjcuNjEyIDM1Ljc0OSAyOS42NyAzNi45MzUgMzAuMjEzIDM3LjI0NSAzMC43NjggMzYuOTU4IDUwLjM3NCAyNi44MDggNTAuOTYzIDI2LjUwMiA1MC45OTQgMjUuODQgNTEuMDE3IDI1LjI3NCA1MS4wOTcgMjMuMjg5IDUxLjE4MSAyMS4yOTYgNDkuNDE0IDIyLjIyOSIvPjxwb2x5Z29uIGNsYXNzPSJjbHMtMSIgcG9pbnRzPSIyNS44MDIgMzQuNzE2IDI1LjgwNiAzNC43MTQgMjUuODAyIDM0LjcxMiAyNS44MDIgMzQuNzE2Ii8+PHBvbHlnb24gY2xhc3M9ImNscy0xIiBwb2ludHM9IjM0LjE2NSAzNy41NTQgMzIuMzA2IDM4LjUyMiAzNC4xMjcgMzkuNTY3IDM2LjQyMiA0MC44NzkgMzYuOTY5IDQxLjE5MyAzNy41MjggNDAuODk4IDUwLjA3MiAzNC4yNjQgNTAuNjUzIDMzLjk1OCA1MC42OCAzMy4zIDUwLjc4NyAzMC44MjUgNTAuODc1IDI4LjgzNiA0OS4xMTIgMjkuNzU4IDM0LjE2NSAzNy41NTQiLz48cG9seWdvbiBjbGFzcz0iY2xzLTIiIHBvaW50cz0iMTcuMTI2IDMxLjg1NCAxNi41NzkgMzEuNTM3IDE2LjAyIDMxLjgyOCAxMy42NzUgMzMuMDQ0IDExLjgxMiAzNC4wMTIgMTMuNjI5IDM1LjA2IDI4LjIzNSA0My40NTQgMjkuOTYxIDQ0LjQ0OCAyOS45NjEgNDIuNDU5IDI5Ljk2MSAzOS4zMjIgMjkuMzkxIDM4Ljk4OSAxNy4xMjYgMzEuODU0Ii8+PHBvbHlnb24gY2xhc3M9ImNscy0yIiBwb2ludHM9IjEwLjIwNSAzNS41MTUgOS42NjIgMzUuMjA2IDkuMTA3IDM1LjQ5MiA2Ljk5OSAzNi41OSA1LjE1MiAzNy41NTQgNS4xNDggMzcuNTYyIDYuOTUgMzguNjEgMjguMjM1IDUwLjk5OCAyOS45NjEgNTIgMjkuOTYxIDQ2Ljc4OSAyOS4zODMgNDYuNDYxIDEwLjIwNSAzNS41MTUiLz48cG9seWdvbiBjbGFzcz0iY2xzLTIiIHBvaW50cz0iMjguMTQzIDEyLjcwMyAyNi4zODQgMTEuNTU2IDI2LjM2NSAxMS41NTYgMjYuMzY1IDEzLjY1NiAyNi4zNDIgMTYuMjk5IDI2LjM0MiAxNi45MzEgMjYuODczIDE3LjI3MSAzOC43OTQgMjQuOTggMzkuMzQ1IDI1LjMzNSAzOS45MzQgMjUuMDM3IDQyLjE0NSAyMy45MDkgNDMuOTIgMjMuMDA5IDQyLjI1NiAyMS45MjMgMjguMTQzIDEyLjcwMyIvPjxwb2x5Z29uIGNsYXNzPSJjbHMtMiIgcG9pbnRzPSI0OC45NjYgMTguNDk5IDI4LjI3IDUuMTQ0IDI2LjUyMSA0LjAxNSAyNi40OTUgNCAyNi40OTUgNi4wODUgMjYuNDcyIDguNDYxIDI2LjQ3MiA5LjA4NCAyNi45OTYgOS40MjkgNDUuNDM5IDIxLjU2IDQ1Ljk5OCAyMS45NDIgNDYuNTkxIDIxLjY0IDQ3LjA5NiAyMS4zODQgNDguODYzIDIwLjQ4NSA1MC42NDIgMTkuNTgyIDQ4Ljk2NiAxOC40OTkiLz48L3N2Zz4=" vertex="1" parent="GcOrCZ338c-xVzX61Gsm-36">
          <mxGeometry x="37" width="46" height="48" as="geometry" />
        </mxCell>
        <mxCell id="GcOrCZ338c-xVzX61Gsm-35" value="SAP Business Application Studio" style="text;html=1;strokeColor=none;fillColor=none;align=center;verticalAlign=middle;whiteSpace=wrap;rounded=0;" vertex="1" parent="GcOrCZ338c-xVzX61Gsm-36">
          <mxGeometry y="48" width="120" height="30" as="geometry" />
        </mxCell>
        <mxCell id="GcOrCZ338c-xVzX61Gsm-37" style="edgeStyle=orthogonalEdgeStyle;rounded=0;orthogonalLoop=1;jettySize=auto;html=1;entryX=0.218;entryY=0.999;entryDx=0;entryDy=0;entryPerimeter=0;" edge="1" parent="O88-N_snsLyPXLneHYWy-7" source="GcOrCZ338c-xVzX61Gsm-33" target="GcOrCZ338c-xVzX61Gsm-13">
          <mxGeometry relative="1" as="geometry" />
        </mxCell>
        <mxCell id="GcOrCZ338c-xVzX61Gsm-38" style="edgeStyle=orthogonalEdgeStyle;rounded=0;orthogonalLoop=1;jettySize=auto;html=1;entryX=0.5;entryY=0;entryDx=0;entryDy=0;" edge="1" parent="O88-N_snsLyPXLneHYWy-7" source="GcOrCZ338c-xVzX61Gsm-13" target="O88-N_snsLyPXLneHYWy-21">
          <mxGeometry relative="1" as="geometry" />
        </mxCell>
        <mxCell id="GcOrCZ338c-xVzX61Gsm-40" style="edgeStyle=orthogonalEdgeStyle;rounded=0;orthogonalLoop=1;jettySize=auto;html=1;entryX=0.5;entryY=1;entryDx=0;entryDy=0;" edge="1" parent="O88-N_snsLyPXLneHYWy-7" source="GcOrCZ338c-xVzX61Gsm-13" target="O88-N_snsLyPXLneHYWy-17">
          <mxGeometry relative="1" as="geometry" />
        </mxCell>
        <mxCell id="GcOrCZ338c-xVzX61Gsm-41" style="edgeStyle=orthogonalEdgeStyle;rounded=0;orthogonalLoop=1;jettySize=auto;html=1;" edge="1" parent="O88-N_snsLyPXLneHYWy-7" source="GcOrCZ338c-xVzX61Gsm-13" target="GcOrCZ338c-xVzX61Gsm-23">
          <mxGeometry relative="1" as="geometry" />
        </mxCell>
        <mxCell id="GcOrCZ338c-xVzX61Gsm-39" style="edgeStyle=orthogonalEdgeStyle;rounded=0;orthogonalLoop=1;jettySize=auto;html=1;" edge="1" parent="1" source="O88-N_snsLyPXLneHYWy-12" target="O88-N_snsLyPXLneHYWy-16">
          <mxGeometry relative="1" as="geometry" />
        </mxCell>
        <mxCell id="O88-N_snsLyPXLneHYWy-12" value="" style="shape=image;verticalLabelPosition=bottom;verticalAlign=top;imageAspect=0;aspect=fixed;image=data:image/svg+xml,PHN2ZyB4bWxucz0iaHR0cDovL3d3dy53My5vcmcvMjAwMC9zdmciIGlkPSJhZ2VudHJ5IiB2aWV3Qm94PSIxMi45OTg3ODAyNTA1NDkzMTYgMy45OTk3ODQ3MDgwMjMwNzEzIDMwLjAwMjM0NjAzODgxODM2IDQ4LjAwMDUzNDA1NzYxNzE5IiB3aWR0aD0iMzAuMDAyMzQ2MDM4ODE4MzYiIGhlaWdodD0iNDguMDAwNTM0MDU3NjE3MTkiPjxkZWZzPjxzdHlsZT4uY2xzLTF7ZmlsbDojMDUzYjcwO30uY2xzLTJ7ZmlsbDojMGE2ZWQxO308L3N0eWxlPjwvZGVmcz48dGl0bGU+YWdlbnRyeTwvdGl0bGU+PHBhdGggY2xhc3M9ImNscy0xIiBkPSJNMzcsNGE1Ljc4LDUuNzgsMCwwLDEsNC4yMTksMS43ODFBNS43OCw1Ljc4LDAsMCwxLDQzLDEwVjQ2YTUuNzI5LDUuNzI5LDAsMCwxLTEuNzgxLDQuMjY2QTUuODYsNS44NiwwLDAsMSwzNyw1MkgxOWE1Ljg1MSw1Ljg1MSwwLDAsMS00LjIxOS0xLjczNEE1LjcxOCw1LjcxOCwwLDAsMSwxMyw0NlYxMGE1Ljc2OCw1Ljc2OCwwLDAsMSwxLjc4MS00LjIxOUE1Ljc3LDUuNzcsMCwwLDEsMTksNFptMyw2SDE2VjQzSDQwWk0yOCw0OWEyLjI2LDIuMjYsMCwwLDAsMS41OTQtLjYwOSwyLjEzNCwyLjEzNCwwLDAsMCwuNjU2LTEuNjQxLDIuMjUsMi4yNSwwLDEsMC00LjUsMCwyLjEyMywyLjEyMywwLDAsMCwuNjU2LDEuNjQxQTIuMjUsMi4yNSwwLDAsMCwyOCw0OVoiLz48cGF0aCBjbGFzcz0iY2xzLTIiIGQ9Ik0xOSwzNS4yMzMsMjYuMzg2LDE2aDIuNzQyTDM3LDM1LjIzM0gzNC4xbC0yLjI0NC01LjgyNUgyMy44MTVMMjEuNywzNS4yMzNabTUuNTUtNy45aDYuNTJsLTIuMDA3LTUuMzI2cS0uOTE5LTIuNDI4LTEuMzY1LTMuOTg5YTI0LjQ5MiwyNC40OTIsMCwwLDEtMS4wMzYsMy42NzRaIi8+PC9zdmc+" parent="1" vertex="1">
          <mxGeometry x="190" y="100" width="50" height="80" as="geometry" />
        </mxCell>
        <mxCell id="GcOrCZ338c-xVzX61Gsm-1" value="" style="shape=image;verticalLabelPosition=bottom;verticalAlign=top;imageAspect=0;aspect=fixed;image=data:image/svg+xml,PHN2ZyB4bWxucz0iaHR0cDovL3d3dy53My5vcmcvMjAwMC9zdmciIGlkPSJtb25nb0RCIiB2aWV3Qm94PSI5Ljk5OTk2MTg1MzAyNzM0NCAzLjk4NDgxMjk3NDkyOTgwOTYgMzYuMDAwMDM4MTQ2OTcyNjU2IDQ4LjAzMDM3MjYxOTYyODkwNiIgd2lkdGg9IjM2LjAwMDAzODE0Njk3MjY1NiIgaGVpZ2h0PSI0OC4wMzAzNzI2MTk2Mjg5MDYiPjxkZWZzPjxzdHlsZT4uY2xzLTF7ZmlsbDojMDUzYjcwO30uY2xzLTJ7ZmlsbDojMGE2ZWQxO308L3N0eWxlPjwvZGVmcz48dGl0bGU+bW9uZ29kYjwvdGl0bGU+PHBhdGggY2xhc3M9ImNscy0xIiBkPSJNNDQuNiw4LjhBMTAuMzEzLDEwLjMxMywwLDAsMCw0MC44Nyw2LjIsMzIuOTEyLDMyLjkxMiwwLDAsMCwyOCw0LDMyLjkxMiwzMi45MTIsMCwwLDAsMTUuMTMsNi4yLDEwLjMxMywxMC4zMTMsMCwwLDAsMTEuNCw4LjgsNS4yMDYsNS4yMDYsMCwwLDAsMTAsMTIuM1Y0My42YTUuMDI2LDUuMDI2LDAsMCwwLDEuNCwzLjUsMTAuMzEzLDEwLjMxMywwLDAsMCwzLjczMSwyLjZDMTguMyw1MS4yLDIyLjc3Nyw1MiwyOCw1MmEzMi45MTIsMzIuOTEyLDAsMCwwLDEyLjg3LTIuMkExMC4zMTMsMTAuMzEzLDAsMCwwLDQ0LjYsNDcuMiw1LjQsNS40LDAsMCwwLDQ2LDQzLjdWMTIuM0E1LjIwNiw1LjIwNiwwLDAsMCw0NC42LDguOFpNNDMuMDE2LDQzLjdjMCwxLjItMS40LDIuNC0zLjgyNCwzLjNBMzIuMiwzMi4yLDAsMCwxLDI4LDQ4LjcsMzIuMiwzMi4yLDAsMCwxLDE2LjgwOCw0N2MtMi4zMzEtLjktMy43My0yLjItMy43My0zLjNWMzguMmExNy4xNDEsMTcuMTQxLDAsMCwwLDUuNSwyLjRBMzcuODQ0LDM3Ljg0NCwwLDAsMCwyOCw0MS43YTM5LjE4MSwzOS4xODEsMCwwLDAsOS41MTMtMS4xLDE2LjgyMSwxNi44MjEsMCwwLDAsNS42LTIuNHY1LjVabTAtMTAuNWMwLDEuMi0xLjQsMi40LTMuODI0LDMuM0EzMi4yLDMyLjIsMCwwLDEsMjgsMzguMmEzMi4yLDMyLjIsMCwwLDEtMTEuMTkyLTEuN2MtMi4zMzEtLjktMy43My0yLjItMy43My0zLjNWMjcuOGExNy4xNDIsMTcuMTQyLDAsMCwwLDUuNSwyLjMsMzguMTMxLDM4LjEzMSwwLDAsMCw5LjQyLDFjNi41MjgsMCwxMS45MzgtMS4yLDE1LjAxNi0zLjRaTTM5LjE5MiwxNS43QTMyLjIsMzIuMiwwLDAsMSwyOCwxNy40YTMyLjIsMzIuMiwwLDAsMS0xMS4xOTItMS43Yy0yLjMzMS0xLTMuNzMtMi4yLTMuNzMtMy40LDAtMi4xLDUuMjIzLTUsMTQuOTIyLTUsOS43OTMsMCwxNS4wMTYsMi45LDE1LjAxNiw1QzQzLjAxNiwxMy41LDQxLjYxNywxNC43LDM5LjE5MiwxNS43WiIvPjxwYXRoIGNsYXNzPSJjbHMtMiIgZD0iTTQyLjk2OSwxMi4zYzAsMS4yLTEuNCwyLjQtMy44MjQsMy40YTMyLjIsMzIuMiwwLDAsMS0xMS4xOTIsMS43LDMyLjIsMzIuMiwwLDAsMS0xMS4xOTEtMS43Yy0yLjMzMi0xLTMuNzMxLTIuMi0zLjczMS0zLjRWMjcuOGExNy4xMzgsMTcuMTM4LDAsMCwwLDUuNSwyLjMsMzguMTE3LDM4LjExNywwLDAsMCw5LjQxOSwxYzYuNTI5LDAsMTEuOTM4LTEuMiwxNS4wMTYtMy40WiIvPjwvc3ZnPg==" vertex="1" parent="1">
          <mxGeometry x="1180" y="180" width="77.5" height="103.33" as="geometry" />
        </mxCell>
        <mxCell id="GcOrCZ338c-xVzX61Gsm-43" value="" style="endArrow=none;dashed=1;html=1;dashPattern=1 3;strokeWidth=2;rounded=0;" edge="1" parent="1">
          <mxGeometry width="50" height="50" relative="1" as="geometry">
            <mxPoint x="1001" y="30" as="sourcePoint" />
            <mxPoint x="1001" y="590" as="targetPoint" />
          </mxGeometry>
        </mxCell>
        <mxCell id="GcOrCZ338c-xVzX61Gsm-46" style="edgeStyle=orthogonalEdgeStyle;rounded=0;orthogonalLoop=1;jettySize=auto;html=1;" edge="1" parent="1" source="GcOrCZ338c-xVzX61Gsm-44" target="GcOrCZ338c-xVzX61Gsm-1">
          <mxGeometry relative="1" as="geometry">
            <mxPoint x="1350" y="243.9999999999999" as="targetPoint" />
          </mxGeometry>
        </mxCell>
        <mxCell id="GcOrCZ338c-xVzX61Gsm-45" value="" style="edgeStyle=orthogonalEdgeStyle;rounded=0;orthogonalLoop=1;jettySize=auto;html=1;exitX=1;exitY=0.5;exitDx=0;exitDy=0;endArrow=none;startArrow=none;" edge="1" parent="1" source="GcOrCZ338c-xVzX61Gsm-47" target="GcOrCZ338c-xVzX61Gsm-44">
          <mxGeometry relative="1" as="geometry">
            <mxPoint x="795" y="330" as="sourcePoint" />
            <mxPoint x="1380" y="250.0000000000001" as="targetPoint" />
            <Array as="points" />
          </mxGeometry>
        </mxCell>
        <mxCell id="GcOrCZ338c-xVzX61Gsm-47" value="" style="shape=image;verticalLabelPosition=bottom;verticalAlign=top;imageAspect=0;aspect=fixed;image=data:image/svg+xml,PHN2ZyB4bWxucz0iaHR0cDovL3d3dy53My5vcmcvMjAwMC9zdmciIGlkPSJzYXAtaGFuYS1jbG91ZC1jb25uZWN0b3IiIHZpZXdCb3g9IjQuMDAwMDAxOTA3MzQ4NjMzIDMuOTk5OTk5MDQ2MzI1NjgzNiA0OCA0Ny45OTk5OTYxODUzMDI3MzQiIHdpZHRoPSI0OCIgaGVpZ2h0PSI0Ny45OTk5OTYxODUzMDI3MzQiPjxkZWZzPjxzdHlsZT4uY2xzLTF7ZmlsbDojMGE2ZWQxO30uY2xzLTJ7ZmlsbDojMDUzYjcwO30uY2xzLTN7ZmlsbDojMDc0ZDkyO308L3N0eWxlPjwvZGVmcz48dGl0bGU+c2FwLWhhbmEtY2xvdWQtY29ubmVjdG9yX2NpcmNsZTwvdGl0bGU+PHBhdGggY2xhc3M9ImNscy0xIiBkPSJNMzQuMzEyLDM5LjM3NUgyOS40MzhhLjgxMy44MTMsMCwxLDAsMCwxLjYyNWg0Ljg3NGEuODEzLjgxMywwLDEsMCwwLTEuNjI1WiIvPjxwYXRoIGNsYXNzPSJjbHMtMSIgZD0iTTM4LjM3LDI2LjM3NUgyNS4zOGExLjYzLDEuNjMsMCwwLDAtMS42MywxLjYzVjM2LjEyYTEuNjMsMS42MywwLDAsMCwxLjYzLDEuNjNIMzguMzdBMS42MywxLjYzLDAsMCwwLDQwLDM2LjEyVjI4LjAwNUExLjYzLDEuNjMsMCwwLDAsMzguMzcsMjYuMzc1Wm0wLDkuNzVMMjUuMzc1LDM2LjEybDAtOC4xMkgzOC4zN2wuMDA1LDBaIi8+PHBhdGggY2xhc3M9ImNscy0yIiBkPSJNMjIuMTg0LDE2LjYyNmEzLjUsMy41LDAsMCwxLDMuMTc3LDIuMTg1bC43MDcsMS43ODFMMjcuNzEsMTkuNmEyLjExNCwyLjExNCwwLDAsMSwxLjEwNi0uMzIsMi4xNTksMi4xNTksMCwwLDEsMi4xMiwxLjc1OWwuMTU2LjgyOS43NjcuMzQ5YTIuOSwyLjksMCwwLDEsMS42MjUsMi41M2gxLjY0MWE0LjUyNiw0LjUyNiwwLDAsMC0yLjU5Mi00LjAwOCwzLjc2LDMuNzYsMCwwLDAtNS42NjItMi41MzFBNS4xMTcsNS4xMTcsMCwwLDAsMjIuMTU1LDE1Yy01LjYyMywwLTUuMDE0LDUuNzUzLTUuMDE0LDUuNzUzYTQuNTQzLDQuNTQzLDAsMCwwLDEuNDE1LDguODY0aDMuNTY5VjI3Ljk5MkgxOC41NTZhMi45MTgsMi45MTgsMCwwLDEtLjkwOC01LjY5NWwxLjI1LS40MTEtLjE0Mi0xLjMwOGE0LjM5Miw0LjM5MiwwLDAsMSwuODExLTIuODYyQTMuNTIyLDMuNTIyLDAsMCwxLDIyLjE4NCwxNi42MjZaIi8+PHBhdGggY2xhc3M9ImNscy0zIiBkPSJNMjgsNkEyMiwyMiwwLDEsMSw2LDI4LDIyLjAyNSwyMi4wMjUsMCwwLDEsMjgsNm0wLTJBMjQsMjQsMCwxLDAsNTIsMjgsMjQsMjQsMCwwLDAsMjgsNFoiLz48L3N2Zz4=" vertex="1" parent="1">
          <mxGeometry x="852" y="306.25" width="48" height="48" as="geometry" />
        </mxCell>
        <mxCell id="GcOrCZ338c-xVzX61Gsm-48" value="" style="edgeStyle=orthogonalEdgeStyle;rounded=0;orthogonalLoop=1;jettySize=auto;html=1;exitX=1;exitY=0.5;exitDx=0;exitDy=0;endArrow=none;" edge="1" parent="1" source="GcOrCZ338c-xVzX61Gsm-30" target="GcOrCZ338c-xVzX61Gsm-47">
          <mxGeometry relative="1" as="geometry">
            <mxPoint x="795" y="330" as="sourcePoint" />
            <mxPoint x="1024" y="268" as="targetPoint" />
            <Array as="points" />
          </mxGeometry>
        </mxCell>
        <mxCell id="GcOrCZ338c-xVzX61Gsm-50" value="" style="group" vertex="1" connectable="0" parent="1">
          <mxGeometry x="1046" y="280" width="60" height="74.25" as="geometry" />
        </mxCell>
        <mxCell id="GcOrCZ338c-xVzX61Gsm-44" value="" style="shape=image;verticalLabelPosition=bottom;verticalAlign=top;imageAspect=0;aspect=fixed;image=data:image/svg+xml,PHN2ZyB4bWxucz0iaHR0cDovL3d3dy53My5vcmcvMjAwMC9zdmciIGlkPSJjbG91ZGNvbm5lY3RvciIgdmlld0JveD0iMy45OTkyODQ1MDU4NDQxMTYgMy45OTk5OTk1MjMxNjI4NDIgNDguMDAwNzE3MTYzMDg1OTQgNDgiIHdpZHRoPSI0OC4wMDA3MTcxNjMwODU5NCIgaGVpZ2h0PSI0OCI+PGRlZnM+PHN0eWxlPi5jbHMtMXtmaWxsOiM3ZjdmN2Y7fTwvc3R5bGU+PC9kZWZzPjx0aXRsZT5jbG91ZGNvbm5lY3RvcjwvdGl0bGU+PHBhdGggY2xhc3M9ImNscy0xIiBkPSJNMTkuMTA5LDdhNi40NTUsNi40NTUsMCwwLDEsNS44NjQsNC4wMzNsMS4zMDcsMy4yOUwyOS4zMSwxMi41YTMuOTIyLDMuOTIyLDAsMCwxLDIuMDQzLS41OTEsMy45ODgsMy45ODgsMCwwLDEsMy45MTQsMy4yNDlsLjI4OCwxLjUyOSwxLjQxNS42NDZhNS4zNTEsNS4zNTEsMCwwLDEsMyw0LjY3SDQzYTguMzU1LDguMzU1LDAsMCwwLTQuNzg1LTcuNEE2Ljk0MSw2Ljk0MSwwLDAsMCwyNy43NjIsOS45MjgsOS40NTIsOS40NTIsMCwwLDAsMTkuMDU1LDRDOC43MDUsNC41NDgsOS44LDE0LjYyMSw5LjgsMTQuNjIxQTguMzg3LDguMzg3LDAsMCwwLDEyLjQxLDMwLjk4NkgxOXYtM0gxMi40MWE1LjM4Nyw1LjM4NywwLDAsMS0xLjY3NS0xMC41MTVsMi4zMDgtLjc1OUwxMi43ODEsMTQuM2E4LjEsOC4xLDAsMCwxLDEuNS01LjI4NEE2LjUsNi41LDAsMCwxLDE5LjEwOSw3WiIvPjxwYXRoIGNsYXNzPSJjbHMtMSIgZD0iTTUyLDUwLjEyNSw1MC4zMTIsNTJsLTUuOTA2LTUuODEyTDQ0LjU5NCw0NmwtMS43ODIsMS42ODhhNy43ODMsNy43ODMsMCwwLDEtNS4zNDMsMi4zNDMsNy4wNTIsNy4wNTIsMCwwLDEtNS4yNS0yLjM0M0wyOS43ODEsNDUuMjVsLTQuMzEyLTQuMTI1YTcuNjY3LDcuNjY3LDAsMCwxLTIuNDM4LTUuNTc4LDcuMzgsNy4zOCwwLDAsMSwyLjQzOC01LjQ4NWwxLjEyNS0xLjIxOEwxOSwyMS4wNjIsMjAuOTY5LDE5bDcuNTkzLDcuNzgxLDEuMjE5LTEuMjE5YTYuMTYxLDYuMTYxLDAsMCwxLDIuNDM4LTEuNzgxLDcuNzQ2LDcuNzQ2LDAsMCwxLDIuOTA2LS41NjIsOC4xLDguMSwwLDAsMSw1LjYyNSwyLjM0M2w0LjIxOSw0LjV2LjA5NGwyLjQzNywyLjQzOGE3LjE1Nyw3LjE1NywwLDAsMSwwLDEwLjU5NGwtMS4xMjUsMS4xMjRaTTI2LjAzMSwzNS41YTQuNzU1LDQuNzU1LDAsMCwwLDEuNSwzLjQ2OWwyLjE1NywyLjE1Nkw0MC43NSwzMC4wNjIsMzguNSwyNy42MjVhNC42LDQuNiwwLDAsMC0zLjM3NS0xLjQwNiwzLjg2NSwzLjg2NSwwLDAsMC0zLjA5NCwxLjMxMmwtNC40MDYsNC42ODhBNC4wODIsNC4wODIsMCwwLDAsMjYuMDMxLDM1LjVabTE5LjMxMyw1LjUzMWEzLjkxMywzLjkxMywwLDAsMCwxLjQwNi0zLjA5Myw0LjM1MSw0LjM1MSwwLDAsMC0xLjMxMi0zLjE4OGwtMi42MjYtMi41MzFMMzEuOTM4LDQzLjE4OGwyLjM0MywyLjM0M2guMDk0bC4wOTQuMDk0YTMuODE0LDMuODE0LDAsMCwwLDMsMS40MDYsNC40NzQsNC40NzQsMCwwLDAsMy4xODctMS41WiIvPjwvc3ZnPg==" vertex="1" parent="GcOrCZ338c-xVzX61Gsm-50">
          <mxGeometry x="4" width="48" height="48" as="geometry" />
        </mxCell>
        <mxCell id="GcOrCZ338c-xVzX61Gsm-49" value="Cloud Connector" style="text;html=1;strokeColor=none;fillColor=none;align=center;verticalAlign=middle;whiteSpace=wrap;rounded=0;" vertex="1" parent="GcOrCZ338c-xVzX61Gsm-50">
          <mxGeometry y="44.25" width="60" height="30" as="geometry" />
        </mxCell>
      </root>
    </mxGraphModel>
  </diagram>
</mxfile>
